<mxfile host="app.diagrams.net" modified="2022-03-03T18:48:02.962Z" agent="5.0 (Windows NT 10.0; Win64; x64) AppleWebKit/537.36 (KHTML, like Gecko) Chrome/98.0.4758.102 Safari/537.36 Edg/98.0.1108.62" etag="IBMCubeZf2r0EK8NgrFS" version="16.6.5" type="github">
  <diagram id="kcT5fowk24v26lLn4jcR" name="Page-1">
    <mxGraphModel dx="1038" dy="547" grid="1" gridSize="10" guides="1" tooltips="1" connect="1" arrows="1" fold="1" page="1" pageScale="1" pageWidth="1169" pageHeight="827" math="0" shadow="0">
      <root>
        <mxCell id="0" />
        <mxCell id="1" parent="0" />
        <mxCell id="zVlcSO70PdcarjpherJH-1" value="Cliente" style="rounded=0;whiteSpace=wrap;html=1;strokeWidth=1;perimeterSpacing=0;" parent="1" vertex="1">
          <mxGeometry x="360" y="120" width="120" height="40" as="geometry" />
        </mxCell>
        <mxCell id="zVlcSO70PdcarjpherJH-2" value="" style="endArrow=none;html=1;rounded=0;fillColor=#000000;entryX=0.166;entryY=0;entryDx=0;entryDy=0;entryPerimeter=0;exitX=0.5;exitY=1;exitDx=0;exitDy=0;" parent="1" source="zVlcSO70PdcarjpherJH-3" edge="1">
          <mxGeometry width="50" height="50" relative="1" as="geometry">
            <mxPoint x="420.08" y="100" as="sourcePoint" />
            <mxPoint x="420.00000000000006" y="120" as="targetPoint" />
          </mxGeometry>
        </mxCell>
        <mxCell id="zVlcSO70PdcarjpherJH-3" value="" style="ellipse;whiteSpace=wrap;html=1;aspect=fixed;strokeWidth=1;fillColor=#000000;" parent="1" vertex="1">
          <mxGeometry x="415" y="80" width="10" height="10" as="geometry" />
        </mxCell>
        <mxCell id="zVlcSO70PdcarjpherJH-4" value="Codice" style="text;html=1;align=center;verticalAlign=middle;resizable=0;points=[];autosize=1;strokeColor=none;fillColor=none;" parent="1" vertex="1">
          <mxGeometry x="395" y="60" width="50" height="20" as="geometry" />
        </mxCell>
        <mxCell id="zVlcSO70PdcarjpherJH-5" value="" style="endArrow=none;html=1;rounded=0;fillColor=#000000;entryX=0.166;entryY=0;entryDx=0;entryDy=0;entryPerimeter=0;exitX=0;exitY=0.5;exitDx=0;exitDy=0;" parent="1" source="Nu1FGXotVl9-86maN8k0-2" edge="1">
          <mxGeometry width="50" height="50" relative="1" as="geometry">
            <mxPoint x="470" y="90" as="sourcePoint" />
            <mxPoint x="470.00000000000006" y="120" as="targetPoint" />
          </mxGeometry>
        </mxCell>
        <mxCell id="zVlcSO70PdcarjpherJH-9" value="" style="ellipse;whiteSpace=wrap;html=1;aspect=fixed;strokeWidth=1;fillColor=none;" parent="1" vertex="1">
          <mxGeometry x="620" y="105" width="10" height="10" as="geometry" />
        </mxCell>
        <mxCell id="zVlcSO70PdcarjpherJH-11" value="Indirizzo" style="ellipse;whiteSpace=wrap;html=1;" parent="1" vertex="1">
          <mxGeometry x="240" y="120" width="80" height="40" as="geometry" />
        </mxCell>
        <mxCell id="zVlcSO70PdcarjpherJH-12" value="Indirizzo&lt;br&gt;Fatturaz." style="ellipse;whiteSpace=wrap;html=1;" parent="1" vertex="1">
          <mxGeometry x="520" y="120" width="80" height="40" as="geometry" />
        </mxCell>
        <mxCell id="zVlcSO70PdcarjpherJH-13" value="" style="endArrow=none;html=1;rounded=0;exitX=1;exitY=0.5;exitDx=0;exitDy=0;entryX=0;entryY=0.5;entryDx=0;entryDy=0;" parent="1" source="zVlcSO70PdcarjpherJH-1" target="zVlcSO70PdcarjpherJH-12" edge="1">
          <mxGeometry width="50" height="50" relative="1" as="geometry">
            <mxPoint x="480" y="150" as="sourcePoint" />
            <mxPoint x="530" y="100" as="targetPoint" />
          </mxGeometry>
        </mxCell>
        <mxCell id="zVlcSO70PdcarjpherJH-14" value="" style="endArrow=none;html=1;rounded=0;entryX=0;entryY=0.5;entryDx=0;entryDy=0;exitX=1;exitY=0.5;exitDx=0;exitDy=0;" parent="1" source="zVlcSO70PdcarjpherJH-11" target="zVlcSO70PdcarjpherJH-1" edge="1">
          <mxGeometry width="50" height="50" relative="1" as="geometry">
            <mxPoint x="280" y="170" as="sourcePoint" />
            <mxPoint x="330" y="120" as="targetPoint" />
          </mxGeometry>
        </mxCell>
        <mxCell id="zVlcSO70PdcarjpherJH-15" value="" style="ellipse;whiteSpace=wrap;html=1;aspect=fixed;strokeWidth=1;fillColor=none;" parent="1" vertex="1">
          <mxGeometry x="620" y="125" width="10" height="10" as="geometry" />
        </mxCell>
        <mxCell id="zVlcSO70PdcarjpherJH-16" value="" style="ellipse;whiteSpace=wrap;html=1;aspect=fixed;strokeWidth=1;fillColor=none;" parent="1" vertex="1">
          <mxGeometry x="620" y="165" width="10" height="10" as="geometry" />
        </mxCell>
        <mxCell id="zVlcSO70PdcarjpherJH-17" value="" style="endArrow=none;html=1;rounded=0;exitX=1;exitY=0.5;exitDx=0;exitDy=0;entryX=0;entryY=0.5;entryDx=0;entryDy=0;" parent="1" source="zVlcSO70PdcarjpherJH-12" target="zVlcSO70PdcarjpherJH-9" edge="1">
          <mxGeometry width="50" height="50" relative="1" as="geometry">
            <mxPoint x="590" y="170" as="sourcePoint" />
            <mxPoint x="640" y="120" as="targetPoint" />
          </mxGeometry>
        </mxCell>
        <mxCell id="zVlcSO70PdcarjpherJH-18" value="" style="endArrow=none;html=1;rounded=0;entryX=0;entryY=0.5;entryDx=0;entryDy=0;" parent="1" target="zVlcSO70PdcarjpherJH-15" edge="1">
          <mxGeometry width="50" height="50" relative="1" as="geometry">
            <mxPoint x="600" y="140" as="sourcePoint" />
            <mxPoint x="640" y="120" as="targetPoint" />
          </mxGeometry>
        </mxCell>
        <mxCell id="zVlcSO70PdcarjpherJH-19" value="" style="endArrow=none;html=1;rounded=0;exitX=1;exitY=0.5;exitDx=0;exitDy=0;entryX=0;entryY=0.5;entryDx=0;entryDy=0;" parent="1" source="zVlcSO70PdcarjpherJH-12" target="zVlcSO70PdcarjpherJH-16" edge="1">
          <mxGeometry width="50" height="50" relative="1" as="geometry">
            <mxPoint x="590" y="170" as="sourcePoint" />
            <mxPoint x="640" y="120" as="targetPoint" />
          </mxGeometry>
        </mxCell>
        <mxCell id="zVlcSO70PdcarjpherJH-20" value="Via" style="text;html=1;align=center;verticalAlign=middle;resizable=0;points=[];autosize=1;strokeColor=none;fillColor=none;" parent="1" vertex="1">
          <mxGeometry x="630" y="100" width="30" height="20" as="geometry" />
        </mxCell>
        <mxCell id="zVlcSO70PdcarjpherJH-21" value="Numero civico" style="text;html=1;align=center;verticalAlign=middle;resizable=0;points=[];autosize=1;strokeColor=none;fillColor=none;" parent="1" vertex="1">
          <mxGeometry x="630" y="120" width="90" height="20" as="geometry" />
        </mxCell>
        <mxCell id="zVlcSO70PdcarjpherJH-22" value="CittÃ " style="text;html=1;align=center;verticalAlign=middle;resizable=0;points=[];autosize=1;strokeColor=none;fillColor=none;" parent="1" vertex="1">
          <mxGeometry x="630" y="140" width="40" height="20" as="geometry" />
        </mxCell>
        <mxCell id="zVlcSO70PdcarjpherJH-23" value="" style="ellipse;whiteSpace=wrap;html=1;aspect=fixed;strokeWidth=1;fillColor=none;" parent="1" vertex="1">
          <mxGeometry x="620" y="145" width="10" height="10" as="geometry" />
        </mxCell>
        <mxCell id="zVlcSO70PdcarjpherJH-24" value="" style="endArrow=none;html=1;rounded=0;exitX=1;exitY=0.5;exitDx=0;exitDy=0;entryX=0;entryY=0.5;entryDx=0;entryDy=0;" parent="1" source="zVlcSO70PdcarjpherJH-12" target="zVlcSO70PdcarjpherJH-23" edge="1">
          <mxGeometry width="50" height="50" relative="1" as="geometry">
            <mxPoint x="640" y="160" as="sourcePoint" />
            <mxPoint x="690" y="110" as="targetPoint" />
          </mxGeometry>
        </mxCell>
        <mxCell id="zVlcSO70PdcarjpherJH-25" value="Nazione" style="text;html=1;align=center;verticalAlign=middle;resizable=0;points=[];autosize=1;strokeColor=none;fillColor=none;" parent="1" vertex="1">
          <mxGeometry x="630" y="160" width="60" height="20" as="geometry" />
        </mxCell>
        <mxCell id="zVlcSO70PdcarjpherJH-26" value="" style="ellipse;whiteSpace=wrap;html=1;aspect=fixed;strokeWidth=1;fillColor=none;" parent="1" vertex="1">
          <mxGeometry x="210" y="105" width="10" height="10" as="geometry" />
        </mxCell>
        <mxCell id="zVlcSO70PdcarjpherJH-27" value="" style="ellipse;whiteSpace=wrap;html=1;aspect=fixed;strokeWidth=1;fillColor=none;" parent="1" vertex="1">
          <mxGeometry x="210" y="125" width="10" height="10" as="geometry" />
        </mxCell>
        <mxCell id="zVlcSO70PdcarjpherJH-28" value="" style="ellipse;whiteSpace=wrap;html=1;aspect=fixed;strokeWidth=1;fillColor=none;" parent="1" vertex="1">
          <mxGeometry x="210" y="165" width="10" height="10" as="geometry" />
        </mxCell>
        <mxCell id="zVlcSO70PdcarjpherJH-29" value="" style="endArrow=none;html=1;rounded=0;entryX=1;entryY=0.5;entryDx=0;entryDy=0;" parent="1" target="zVlcSO70PdcarjpherJH-26" edge="1">
          <mxGeometry width="50" height="50" relative="1" as="geometry">
            <mxPoint x="240" y="140" as="sourcePoint" />
            <mxPoint x="259.999999999998" y="115" as="targetPoint" />
          </mxGeometry>
        </mxCell>
        <mxCell id="zVlcSO70PdcarjpherJH-30" value="" style="endArrow=none;html=1;rounded=0;entryX=1;entryY=0.5;entryDx=0;entryDy=0;" parent="1" target="zVlcSO70PdcarjpherJH-27" edge="1">
          <mxGeometry width="50" height="50" relative="1" as="geometry">
            <mxPoint x="240" y="140" as="sourcePoint" />
            <mxPoint x="259.999999999998" y="125" as="targetPoint" />
          </mxGeometry>
        </mxCell>
        <mxCell id="zVlcSO70PdcarjpherJH-31" value="" style="endArrow=none;html=1;rounded=0;entryX=1;entryY=0.5;entryDx=0;entryDy=0;" parent="1" target="zVlcSO70PdcarjpherJH-28" edge="1">
          <mxGeometry width="50" height="50" relative="1" as="geometry">
            <mxPoint x="240" y="140" as="sourcePoint" />
            <mxPoint x="229.99999999999977" y="165" as="targetPoint" />
          </mxGeometry>
        </mxCell>
        <mxCell id="zVlcSO70PdcarjpherJH-32" value="Via" style="text;html=1;align=center;verticalAlign=middle;resizable=0;points=[];autosize=1;strokeColor=none;fillColor=none;" parent="1" vertex="1">
          <mxGeometry x="180" y="99" width="30" height="20" as="geometry" />
        </mxCell>
        <mxCell id="zVlcSO70PdcarjpherJH-33" value="Numero civico" style="text;html=1;align=center;verticalAlign=middle;resizable=0;points=[];autosize=1;strokeColor=none;fillColor=none;" parent="1" vertex="1">
          <mxGeometry x="120" y="119" width="90" height="20" as="geometry" />
        </mxCell>
        <mxCell id="zVlcSO70PdcarjpherJH-34" value="CittÃ " style="text;html=1;align=center;verticalAlign=middle;resizable=0;points=[];autosize=1;strokeColor=none;fillColor=none;" parent="1" vertex="1">
          <mxGeometry x="170" y="139" width="40" height="20" as="geometry" />
        </mxCell>
        <mxCell id="zVlcSO70PdcarjpherJH-35" value="" style="ellipse;whiteSpace=wrap;html=1;aspect=fixed;strokeWidth=1;fillColor=none;" parent="1" vertex="1">
          <mxGeometry x="210" y="145" width="10" height="10" as="geometry" />
        </mxCell>
        <mxCell id="zVlcSO70PdcarjpherJH-36" value="" style="endArrow=none;html=1;rounded=0;entryX=1;entryY=0.5;entryDx=0;entryDy=0;" parent="1" target="zVlcSO70PdcarjpherJH-35" edge="1">
          <mxGeometry width="50" height="50" relative="1" as="geometry">
            <mxPoint x="240" y="140" as="sourcePoint" />
            <mxPoint x="259.999999999998" y="145" as="targetPoint" />
          </mxGeometry>
        </mxCell>
        <mxCell id="zVlcSO70PdcarjpherJH-37" value="Nazione" style="text;html=1;align=center;verticalAlign=middle;resizable=0;points=[];autosize=1;strokeColor=none;fillColor=none;" parent="1" vertex="1">
          <mxGeometry x="150" y="159" width="60" height="20" as="geometry" />
        </mxCell>
        <mxCell id="zVlcSO70PdcarjpherJH-40" value="" style="ellipse;whiteSpace=wrap;html=1;aspect=fixed;strokeWidth=1;fillColor=none;" parent="1" vertex="1">
          <mxGeometry x="365" y="80" width="10" height="10" as="geometry" />
        </mxCell>
        <mxCell id="zVlcSO70PdcarjpherJH-41" value="" style="endArrow=none;html=1;rounded=0;entryX=0.5;entryY=1;entryDx=0;entryDy=0;" parent="1" target="zVlcSO70PdcarjpherJH-40" edge="1">
          <mxGeometry width="50" height="50" relative="1" as="geometry">
            <mxPoint x="370" y="120" as="sourcePoint" />
            <mxPoint x="450" y="100" as="targetPoint" />
          </mxGeometry>
        </mxCell>
        <mxCell id="zVlcSO70PdcarjpherJH-42" value="Contatto preferito" style="text;html=1;align=center;verticalAlign=middle;resizable=0;points=[];autosize=1;strokeColor=none;fillColor=none;" parent="1" vertex="1">
          <mxGeometry x="281" y="60" width="110" height="20" as="geometry" />
        </mxCell>
        <mxCell id="zVlcSO70PdcarjpherJH-43" value="Privato" style="rounded=0;whiteSpace=wrap;html=1;strokeWidth=1;perimeterSpacing=0;" parent="1" vertex="1">
          <mxGeometry x="200" y="280" width="120" height="40" as="geometry" />
        </mxCell>
        <mxCell id="zVlcSO70PdcarjpherJH-44" value="Rivendita" style="rounded=0;whiteSpace=wrap;html=1;strokeWidth=1;perimeterSpacing=0;" parent="1" vertex="1">
          <mxGeometry x="520" y="280" width="120" height="40" as="geometry" />
        </mxCell>
        <mxCell id="zVlcSO70PdcarjpherJH-45" value="" style="endArrow=none;html=1;rounded=0;" parent="1" edge="1">
          <mxGeometry width="50" height="50" relative="1" as="geometry">
            <mxPoint x="260" y="240" as="sourcePoint" />
            <mxPoint x="580" y="240" as="targetPoint" />
          </mxGeometry>
        </mxCell>
        <mxCell id="zVlcSO70PdcarjpherJH-46" value="" style="endArrow=none;html=1;rounded=0;exitX=0.5;exitY=0;exitDx=0;exitDy=0;" parent="1" source="zVlcSO70PdcarjpherJH-43" edge="1">
          <mxGeometry width="50" height="50" relative="1" as="geometry">
            <mxPoint x="230" y="260" as="sourcePoint" />
            <mxPoint x="260" y="240" as="targetPoint" />
          </mxGeometry>
        </mxCell>
        <mxCell id="zVlcSO70PdcarjpherJH-47" value="" style="endArrow=none;html=1;rounded=0;exitX=0.5;exitY=0;exitDx=0;exitDy=0;" parent="1" source="zVlcSO70PdcarjpherJH-44" edge="1">
          <mxGeometry width="50" height="50" relative="1" as="geometry">
            <mxPoint x="560" y="260" as="sourcePoint" />
            <mxPoint x="580" y="240" as="targetPoint" />
          </mxGeometry>
        </mxCell>
        <mxCell id="zVlcSO70PdcarjpherJH-48" value="" style="shape=flexArrow;endArrow=classic;html=1;rounded=0;fillColor=#000000;" parent="1" edge="1">
          <mxGeometry width="50" height="50" relative="1" as="geometry">
            <mxPoint x="419" y="240" as="sourcePoint" />
            <mxPoint x="419" y="160" as="targetPoint" />
          </mxGeometry>
        </mxCell>
        <mxCell id="zVlcSO70PdcarjpherJH-49" value="" style="ellipse;whiteSpace=wrap;html=1;aspect=fixed;strokeWidth=1;fillColor=none;" parent="1" vertex="1">
          <mxGeometry x="160" y="285" width="10" height="10" as="geometry" />
        </mxCell>
        <mxCell id="zVlcSO70PdcarjpherJH-50" value="" style="endArrow=none;html=1;rounded=0;fillColor=#000000;exitX=1;exitY=0.5;exitDx=0;exitDy=0;entryX=0;entryY=0.25;entryDx=0;entryDy=0;" parent="1" source="zVlcSO70PdcarjpherJH-49" target="zVlcSO70PdcarjpherJH-43" edge="1">
          <mxGeometry width="50" height="50" relative="1" as="geometry">
            <mxPoint x="150" y="290" as="sourcePoint" />
            <mxPoint x="200" y="240" as="targetPoint" />
          </mxGeometry>
        </mxCell>
        <mxCell id="zVlcSO70PdcarjpherJH-51" value="Nome" style="text;html=1;align=center;verticalAlign=middle;resizable=0;points=[];autosize=1;strokeColor=none;fillColor=none;" parent="1" vertex="1">
          <mxGeometry x="115" y="280" width="50" height="20" as="geometry" />
        </mxCell>
        <mxCell id="zVlcSO70PdcarjpherJH-52" value="" style="ellipse;whiteSpace=wrap;html=1;aspect=fixed;strokeWidth=1;fillColor=none;" parent="1" vertex="1">
          <mxGeometry x="160" y="305" width="10" height="10" as="geometry" />
        </mxCell>
        <mxCell id="zVlcSO70PdcarjpherJH-53" value="" style="endArrow=none;html=1;rounded=0;fillColor=#000000;entryX=0;entryY=0.75;entryDx=0;entryDy=0;" parent="1" target="zVlcSO70PdcarjpherJH-43" edge="1">
          <mxGeometry width="50" height="50" relative="1" as="geometry">
            <mxPoint x="170" y="310" as="sourcePoint" />
            <mxPoint x="190" y="260" as="targetPoint" />
          </mxGeometry>
        </mxCell>
        <mxCell id="zVlcSO70PdcarjpherJH-54" value="Cognome" style="text;html=1;align=center;verticalAlign=middle;resizable=0;points=[];autosize=1;strokeColor=none;fillColor=none;" parent="1" vertex="1">
          <mxGeometry x="95" y="300" width="70" height="20" as="geometry" />
        </mxCell>
        <mxCell id="zVlcSO70PdcarjpherJH-55" value="" style="ellipse;whiteSpace=wrap;html=1;aspect=fixed;strokeWidth=1;fillColor=none;" parent="1" vertex="1">
          <mxGeometry x="350" y="285" width="10" height="10" as="geometry" />
        </mxCell>
        <mxCell id="zVlcSO70PdcarjpherJH-56" value="" style="endArrow=none;html=1;rounded=0;fillColor=#000000;exitX=0;exitY=0.5;exitDx=0;exitDy=0;entryX=1;entryY=0.25;entryDx=0;entryDy=0;" parent="1" source="zVlcSO70PdcarjpherJH-55" target="zVlcSO70PdcarjpherJH-43" edge="1">
          <mxGeometry width="50" height="50" relative="1" as="geometry">
            <mxPoint x="260" y="349.44" as="sourcePoint" />
            <mxPoint x="234.95999999999998" y="320" as="targetPoint" />
          </mxGeometry>
        </mxCell>
        <mxCell id="zVlcSO70PdcarjpherJH-57" value="CF" style="text;html=1;align=center;verticalAlign=middle;resizable=0;points=[];autosize=1;strokeColor=none;fillColor=none;" parent="1" vertex="1">
          <mxGeometry x="361" y="280" width="30" height="20" as="geometry" />
        </mxCell>
        <mxCell id="zVlcSO70PdcarjpherJH-58" value="" style="ellipse;whiteSpace=wrap;html=1;aspect=fixed;strokeWidth=1;fillColor=none;" parent="1" vertex="1">
          <mxGeometry x="670" y="285" width="10" height="10" as="geometry" />
        </mxCell>
        <mxCell id="zVlcSO70PdcarjpherJH-59" value="" style="ellipse;whiteSpace=wrap;html=1;aspect=fixed;strokeWidth=1;fillColor=none;" parent="1" vertex="1">
          <mxGeometry x="670" y="305" width="10" height="10" as="geometry" />
        </mxCell>
        <mxCell id="zVlcSO70PdcarjpherJH-60" value="Partita IVA" style="text;html=1;align=center;verticalAlign=middle;resizable=0;points=[];autosize=1;strokeColor=none;fillColor=none;" parent="1" vertex="1">
          <mxGeometry x="681" y="280" width="70" height="20" as="geometry" />
        </mxCell>
        <mxCell id="zVlcSO70PdcarjpherJH-61" value="Nome" style="text;html=1;align=center;verticalAlign=middle;resizable=0;points=[];autosize=1;strokeColor=none;fillColor=none;" parent="1" vertex="1">
          <mxGeometry x="679" y="300" width="50" height="20" as="geometry" />
        </mxCell>
        <mxCell id="zVlcSO70PdcarjpherJH-62" value="" style="endArrow=none;html=1;rounded=0;fillColor=#000000;entryX=0;entryY=0.5;entryDx=0;entryDy=0;exitX=1;exitY=0.25;exitDx=0;exitDy=0;" parent="1" source="zVlcSO70PdcarjpherJH-44" target="zVlcSO70PdcarjpherJH-58" edge="1">
          <mxGeometry width="50" height="50" relative="1" as="geometry">
            <mxPoint x="670" y="340" as="sourcePoint" />
            <mxPoint x="720" y="290" as="targetPoint" />
          </mxGeometry>
        </mxCell>
        <mxCell id="zVlcSO70PdcarjpherJH-63" value="" style="endArrow=none;html=1;rounded=0;fillColor=#000000;exitX=1;exitY=0.75;exitDx=0;exitDy=0;entryX=0;entryY=0.5;entryDx=0;entryDy=0;" parent="1" source="zVlcSO70PdcarjpherJH-44" target="zVlcSO70PdcarjpherJH-59" edge="1">
          <mxGeometry width="50" height="50" relative="1" as="geometry">
            <mxPoint x="670" y="340" as="sourcePoint" />
            <mxPoint x="720" y="290" as="targetPoint" />
          </mxGeometry>
        </mxCell>
        <mxCell id="Nu1FGXotVl9-86maN8k0-1" value="(0,1)" style="text;html=1;align=center;verticalAlign=middle;resizable=0;points=[];autosize=1;strokeColor=none;fillColor=none;" parent="1" vertex="1">
          <mxGeometry x="365" y="99" width="40" height="20" as="geometry" />
        </mxCell>
        <mxCell id="Nu1FGXotVl9-86maN8k0-2" value="Contatto" style="ellipse;whiteSpace=wrap;html=1;" parent="1" vertex="1">
          <mxGeometry x="470" y="66.28" width="70" height="26.5" as="geometry" />
        </mxCell>
        <mxCell id="Nu1FGXotVl9-86maN8k0-3" value="(1,N)" style="text;html=1;align=center;verticalAlign=middle;resizable=0;points=[];autosize=1;strokeColor=none;fillColor=none;" parent="1" vertex="1">
          <mxGeometry x="468" y="96.27999999999999" width="40" height="20" as="geometry" />
        </mxCell>
        <mxCell id="Nu1FGXotVl9-86maN8k0-4" value="" style="ellipse;whiteSpace=wrap;html=1;aspect=fixed;strokeWidth=1;fillColor=none;" parent="1" vertex="1">
          <mxGeometry x="569" y="62.28" width="10" height="10" as="geometry" />
        </mxCell>
        <mxCell id="Nu1FGXotVl9-86maN8k0-5" value="" style="ellipse;whiteSpace=wrap;html=1;aspect=fixed;strokeWidth=1;fillColor=none;" parent="1" vertex="1">
          <mxGeometry x="569" y="82.28" width="10" height="10" as="geometry" />
        </mxCell>
        <mxCell id="Nu1FGXotVl9-86maN8k0-6" value="" style="endArrow=none;html=1;rounded=0;entryX=0;entryY=0.5;entryDx=0;entryDy=0;exitX=1;exitY=0.5;exitDx=0;exitDy=0;" parent="1" source="Nu1FGXotVl9-86maN8k0-2" target="Nu1FGXotVl9-86maN8k0-4" edge="1">
          <mxGeometry width="50" height="50" relative="1" as="geometry">
            <mxPoint x="489" y="132.28" as="sourcePoint" />
            <mxPoint x="539" y="82.28" as="targetPoint" />
          </mxGeometry>
        </mxCell>
        <mxCell id="Nu1FGXotVl9-86maN8k0-7" value="" style="endArrow=none;html=1;rounded=0;entryX=0;entryY=0.5;entryDx=0;entryDy=0;exitX=1;exitY=0.5;exitDx=0;exitDy=0;" parent="1" source="Nu1FGXotVl9-86maN8k0-2" target="Nu1FGXotVl9-86maN8k0-5" edge="1">
          <mxGeometry width="50" height="50" relative="1" as="geometry">
            <mxPoint x="499" y="122.28" as="sourcePoint" />
            <mxPoint x="549" y="72.28" as="targetPoint" />
          </mxGeometry>
        </mxCell>
        <mxCell id="Nu1FGXotVl9-86maN8k0-8" value="Recapito" style="text;html=1;align=center;verticalAlign=middle;resizable=0;points=[];autosize=1;strokeColor=none;fillColor=none;" parent="1" vertex="1">
          <mxGeometry x="579" y="56.28" width="60" height="20" as="geometry" />
        </mxCell>
        <mxCell id="Nu1FGXotVl9-86maN8k0-9" value="Mezzo di com." style="text;html=1;align=center;verticalAlign=middle;resizable=0;points=[];autosize=1;strokeColor=none;fillColor=none;" parent="1" vertex="1">
          <mxGeometry x="580" y="76.28" width="90" height="20" as="geometry" />
        </mxCell>
      </root>
    </mxGraphModel>
  </diagram>
</mxfile>
